<?xml version="1.0" standalone="no"?>
<!DOCTYPE svg PUBLIC "-//W3C//DTD SVG 20010904//EN"
 "http://www.w3.org/TR/2001/REC-SVG-20010904/DTD/svg10.dtd">
<svg version="1.0" xmlns="http://www.w3.org/2000/svg"
 width="100.000000pt" height="100.000000pt" viewBox="0 0 100.000000 100.000000"
 preserveAspectRatio="xMidYMid meet">
<metadata>
Created by potrace 1.11, written by Peter Selinger 2001-2013
</metadata>
<g transform="translate(0.000000,100.000000) scale(0.100000,-0.100000)"
fill="#000000" stroke="none">
<path d="M435 979 c-241 -28 -425 -241 -425 -490 0 -270 219 -488 490 -489
134 0 247 47 346 145 106 105 149 219 142 376 -4 86 -9 106 -41 173 -96 202
-291 311 -512 285z m246 -86 c81 -39 142 -92 189 -165 141 -217 59 -514 -174
-628 -223 -110 -480 -22 -591 204 -106 213 -15 476 201 582 78 38 107 44 215
40 83 -2 105 -7 160 -33z"/>
<path d="M645 829 c-43 -12 -154 -106 -210 -178 -26 -34 -50 -61 -53 -61 -2 0
-1 20 2 45 5 31 4 45 -4 45 -21 0 -70 -58 -70 -82 l0 -23 20 25 20 25 0 -50
c0 -38 -8 -63 -33 -105 -31 -53 -32 -54 -35 -26 -2 16 4 49 14 74 16 43 16 46
-1 59 -22 15 -81 18 -90 3 -3 -5 0 -20 6 -32 7 -13 15 -72 19 -131 4 -72 10
-111 19 -116 8 -5 11 -17 7 -28 -17 -53 53 -113 131 -113 43 0 87 25 79 45 -3
8 8 18 26 26 16 7 48 36 70 65 36 48 76 84 95 84 4 0 -8 -15 -26 -34 -27 -28
-35 -45 -39 -86 -2 -28 -9 -53 -13 -56 -5 -3 -9 -10 -9 -16 0 -30 40 30 49 74
9 41 22 60 71 109 33 32 60 63 60 68 0 5 -23 0 -51 -10 -53 -20 -66 -20 -55 3
14 28 32 57 45 72 7 9 10 16 6 16 -5 0 0 8 9 19 9 10 16 22 15 27 -3 13 11 46
28 65 8 9 13 20 12 25 -1 5 0 16 4 24 19 50 15 75 -20 118 -35 43 -46 47 -98
31z m-5 -33 c0 -2 -8 -10 -17 -17 -16 -13 -17 -12 -4 4 13 16 21 21 21 13z
m35 -26 c-3 -5 -14 -10 -23 -10 -15 0 -15 2 -2 10 20 13 33 13 25 0z m-115
-45 c-24 -25 -46 -45 -49 -45 -3 0 15 20 39 45 24 25 46 45 49 45 3 0 -15 -20
-39 -45z m85 15 c7 -12 -12 -40 -27 -40 -16 0 -21 32 -7 41 18 12 26 11 34 -1z
m-35 -55 c10 -12 10 -19 2 -27 -15 -15 -48 14 -38 31 10 15 21 14 36 -4z m92
-27 c-16 -16 -37 4 -28 28 6 16 8 16 23 1 13 -13 14 -19 5 -29z m-202 -1 c0
-2 -12 -14 -27 -28 l-28 -24 24 28 c23 25 31 32 31 24z m76 -21 c27 -20 6 -43
-25 -27 -22 12 -26 23 -14 34 9 10 17 9 39 -7z m103 -10 c9 -10 9 -16 1 -21
-16 -10 -40 2 -40 20 0 19 24 20 39 1z m-229 -30 c0 -2 -8 -10 -17 -17 -16
-13 -17 -12 -4 4 13 16 21 21 21 13z m95 -12 c22 -22 5 -40 -24 -25 -22 12
-26 23 -14 34 10 11 20 8 38 -9z m109 -19 c7 -20 -10 -28 -34 -15 -17 9 -19
14 -10 25 13 16 36 10 44 -10z m-371 -4 c5 -5 4 -19 -3 -32 -8 -13 -11 -44 -8
-78 7 -71 -6 -114 -15 -56 -4 22 -7 61 -7 86 0 33 -6 51 -20 64 -11 10 -20 22
-20 28 0 11 60 1 73 -12z m111 -109 c-58 -101 -59 -105 -57 -175 l3 -68 -28 3
c-26 3 -27 6 -27 54 1 57 18 102 84 219 45 77 46 79 49 47 2 -22 -6 -48 -24
-80z m116 82 c11 -12 11 -18 -1 -29 -12 -12 -17 -12 -33 0 -20 15 -16 45 7 45
8 0 20 -7 27 -16z m110 -29 c0 -21 -15 -26 -35 -11 -26 19 -13 51 15 36 11 -6
20 -17 20 -25z m-151 -24 c8 -5 11 -16 8 -25 -5 -13 -11 -15 -26 -6 -12 6 -18
16 -15 25 7 17 13 18 33 6z m107 -15 c27 -20 6 -43 -25 -27 -22 12 -26 23 -14
34 9 10 17 9 39 -7z m-130 -65 c-5 -8 -13 -8 -27 0 -17 8 -18 13 -8 25 11 13
14 13 27 0 8 -8 11 -19 8 -25z m82 17 c16 -16 15 -38 -2 -38 -18 0 -39 27 -31
40 8 13 18 13 33 -2z m-119 -42 c9 -10 9 -16 1 -21 -17 -11 -40 3 -34 20 8 19
18 19 33 1z m191 11 c0 -2 -17 -19 -37 -38 -20 -18 -31 -25 -23 -14 20 26 60
61 60 52z m-100 -22 c19 -23 -1 -40 -29 -26 -22 12 -26 23 -14 34 11 12 30 8
43 -8z m-128 -67 c-9 -9 -12 -7 -12 12 0 19 3 21 12 12 9 -9 9 -15 0 -24z m79
22 c22 -12 25 -36 5 -43 -21 -8 -50 17 -43 37 7 19 12 20 38 6z m46 -45 c-25
-22 -96 -50 -105 -40 -2 2 14 9 36 14 22 6 51 20 64 31 33 28 38 24 5 -5z"/>
</g>
</svg>
